<svg xmlns="http://www.w3.org/2000/svg" width="150.104" height="75" viewBox="0 0 150.104 75"><defs><style>.a{fill:none;}.b{fill:#212e3e;}</style></defs><g transform="translate(1189 -639)"><rect class="a" width="150" height="75" transform="translate(-1189 639)"/><path class="b" d="M-32.987,8.928a4.136,4.136,0,0,0,1.136,2.592h7.46c-.889-.912-1.482-2.544-1.482-5.088V-3.552c0-7.728-4.545-10.608-11.117-10.608-4.792,0-9.832,1.776-11.117,7.536l6.275,2.016c.494-1.824,1.63-3.7,4.5-3.7,3.113,0,4.051,2.016,4.051,3.648v.576a18.439,18.439,0,0,1-5.534,1.152C-45.042-2.208-48.9-.192-48.9,5.184c0,4.608,3.9,7.056,8.547,7.056A8.659,8.659,0,0,0-32.987,8.928Zm-.3-5.328a6.313,6.313,0,0,1-5.336,3.264c-2.125,0-2.816-1.056-2.866-2.16-.1-1.968,1.383-2.784,3.656-3.216A24.9,24.9,0,0,0-33.283.24Zm19.368,7.92V-9.744l8.1,21.264H.857L8.96-9.744V11.52h7.905V-23.04H6.983l-9.437,25.3-9.486-25.3h-9.881V11.52ZM36.727-13.44V.144c0,4.032-2.125,6.048-4.694,6.048-2.866,0-3.953-1.632-3.953-4.512V-13.44H20.669V1.872c0,5.952,2.223,10.368,9.338,10.368,3.063,0,5.287-1.248,7.164-4.32v3.6h6.966V-13.44ZM45.719,4.32c.494,4.56,4.447,7.92,10.721,7.92,6.126,0,10.672-2.688,10.672-8.208,0-5.136-3.953-6.912-6.769-7.488l-5.879-1.2c-1.285-.24-1.877-.912-1.877-1.728,0-1.68,1.68-2.256,3.706-2.256,1.828,0,3.656.672,4,2.736L66.519-6.96c-.148-3.792-3.854-7.2-9.98-7.2-5.287,0-10.178,2.256-10.178,7.968,0,4.128,2.915,6.432,6.275,7.152l6.077,1.3c1.038.24,1.976.816,1.976,1.968,0,2.016-2.075,2.5-4.1,2.5-2.767,0-4.4-1.248-4.694-3.408ZM92.26,1.1c0-.1.049-1.584.049-3.072,0-8.352-5.879-12.192-12.352-12.192-6.571,0-12.747,3.984-12.747,13.2s6.126,13.2,12.747,13.2c6.176,0,9.98-2.544,11.907-7.488L84.948,3.36a4.546,4.546,0,0,1-4.5,2.88c-3.31,0-5.632-1.68-5.83-5.136ZM79.76-8.16c2.866,0,4.842,1.728,5.04,4.368H74.721A4.9,4.9,0,0,1,79.76-8.16ZM101.1,11.52V4.32h-7.46v7.2Z" transform="translate(-1140 701.5)"/></g></svg>